<svg width="180" height="180" viewBox="0 0 180 180" fill="none" xmlns="http://www.w3.org/2000/svg">
  <!-- Background -->
  <rect width="180" height="180" rx="24" fill="#0a0a0a"/>
  
  <!-- Border glow effect -->
  <rect x="4" y="4" width="172" height="172" rx="20" stroke="#22c55e" stroke-width="2" stroke-opacity="0.3"/>
  
  <!-- Terminal bracket decorations -->
  <path d="M30 40 L30 30 L40 30" stroke="#22c55e" stroke-width="4" stroke-linecap="round" stroke-linejoin="round"/>
  <path d="M150 30 L150 40" stroke="#22c55e" stroke-width="4" stroke-linecap="round" stroke-opacity="0.5"/>
  <path d="M140 30 L150 30" stroke="#22c55e" stroke-width="4" stroke-linecap="round" stroke-opacity="0.5"/>
  <path d="M30 140 L30 150 L40 150" stroke="#22c55e" stroke-width="4" stroke-linecap="round" stroke-linejoin="round" stroke-opacity="0.5"/>
  <path d="M140 150 L150 150 L150 140" stroke="#22c55e" stroke-width="4" stroke-linecap="round" stroke-linejoin="round" stroke-opacity="0.5"/>
  
  <!-- Main "R" letter with terminal/code style -->
  <g transform="translate(45, 45)">
    <!-- R letter body -->
    <path 
      d="M20 0 L20 90" 
      stroke="#22c55e" 
      stroke-width="12" 
      stroke-linecap="round"
    />
    <!-- R curve top -->
    <path 
      d="M20 8 L45 8 Q70 8 70 30 Q70 52 45 52 L20 52" 
      stroke="#22c55e" 
      stroke-width="12" 
      fill="none"
      stroke-linecap="round"
      stroke-linejoin="round"
    />
    <!-- R leg -->
    <path 
      d="M45 52 L70 90" 
      stroke="#22c55e" 
      stroke-width="12" 
      stroke-linecap="round"
    />
  </g>
  
  <!-- Terminal cursor blink -->
  <rect x="130" y="120" width="8" height="20" fill="#22c55e">
    <animate attributeName="opacity" values="1;0;1" dur="1s" repeatCount="indefinite"/>
  </rect>
  
  <!-- Code dots decoration -->
  <circle cx="50" cy="150" r="4" fill="#22c55e" fill-opacity="0.4"/>
  <circle cx="65" cy="150" r="4" fill="#22c55e" fill-opacity="0.6"/>
  <circle cx="80" cy="150" r="4" fill="#22c55e" fill-opacity="0.8"/>
</svg>